<?xml version="1.0" standalone="no"?>
<!DOCTYPE svg PUBLIC "-//W3C//DTD SVG 20010904//EN"
 "http://www.w3.org/TR/2001/REC-SVG-20010904/DTD/svg10.dtd">
<svg version="1.0" xmlns="http://www.w3.org/2000/svg"
 width="250.000000pt" height="175.000000pt" viewBox="0 0 250.000000 175.000000"
 preserveAspectRatio="xMidYMid meet">

<g transform="translate(0.000000,175.000000) scale(0.100000,-0.100000)"
fill="#000000" stroke="none">
<path d="M1195 1631 c-158 -40 -233 -222 -146 -352 96 -143 295 -143 391 -1
94 140 0 335 -170 355 -25 3 -58 2 -75 -2z"/>
<path d="M755 1310 c-130 -29 -164 -212 -53 -280 54 -32 102 -35 156 -8 57 28
86 74 86 137 0 101 -91 174 -189 151z"/>
<path d="M1665 1310 c-73 -16 -119 -75 -119 -150 0 -64 28 -110 86 -138 107
-53 221 18 222 138 0 100 -91 173 -189 150z"/>
<path d="M413 1101 c-66 -41 -61 -141 9 -177 67 -35 148 14 148 90 -1 86 -83
132 -157 87z"/>
<path d="M1975 1109 c-60 -35 -75 -116 -29 -162 36 -37 85 -44 126 -20 58 33
67 118 20 166 -23 23 -90 32 -117 16z"/>
<path d="M1133 1080 c-108 -35 -191 -116 -232 -224 -19 -52 -21 -77 -21 -418
l-1 -363 366 -3 366 -2 -3 378 -3 377 -33 67 c-80 163 -269 243 -439 188z"/>
<path d="M685 906 c-60 -28 -97 -66 -124 -126 -19 -41 -21 -65 -21 -302 l0
-258 135 0 135 0 0 278 c0 221 3 289 16 332 31 110 34 100 -32 100 -41 0 -74
-7 -109 -24z"/>
<path d="M1643 908 c3 -13 13 -48 21 -78 13 -43 16 -111 16 -332 l0 -278 135
0 135 0 0 258 c0 249 -1 258 -24 307 -44 93 -126 144 -230 145 -56 0 -58 -1
-53 -22z"/>
<path d="M400 829 c-43 -17 -80 -61 -95 -113 -11 -35 -15 -97 -15 -208 l0
-158 90 0 90 0 0 183 c0 174 5 218 35 290 6 15 1 17 -36 16 -24 0 -55 -5 -69
-10z"/>
<path d="M1985 823 c30 -72 35 -116 35 -290 l0 -183 90 0 90 0 0 158 c0 179
-13 242 -57 284 -35 33 -73 48 -125 48 -34 0 -39 -3 -33 -17z"/>
</g>
</svg>
